<svg id="visual" viewBox="0 0 900 600" width="900" height="600" xmlns="http://www.w3.org/2000/svg" xmlns:xlink="http://www.w3.org/1999/xlink" version="1.1"><rect x="0" y="0" width="900" height="600" fill="#ffffff"></rect><path d="M0 457L21.5 454C43 451 86 445 128.8 429.7C171.7 414.3 214.3 389.7 257.2 373.7C300 357.7 343 350.3 385.8 358C428.7 365.7 471.3 388.3 514.2 392.7C557 397 600 383 642.8 382.7C685.7 382.3 728.3 395.7 771.2 406.7C814 417.7 857 426.3 878.5 430.7L900 435L900 601L878.5 601C857 601 814 601 771.2 601C728.3 601 685.7 601 642.8 601C600 601 557 601 514.2 601C471.3 601 428.7 601 385.8 601C343 601 300 601 257.2 601C214.3 601 171.7 601 128.8 601C86 601 43 601 21.5 601L0 601Z" fill="#e4f7dd"></path><path d="M0 397L21.5 397.8C43 398.7 86 400.3 128.8 403.5C171.7 406.7 214.3 411.3 257.2 419.3C300 427.3 343 438.7 385.8 442.2C428.7 445.7 471.3 441.3 514.2 441.7C557 442 600 447 642.8 445.2C685.7 443.3 728.3 434.7 771.2 433.3C814 432 857 438 878.5 441L900 444L900 601L878.5 601C857 601 814 601 771.2 601C728.3 601 685.7 601 642.8 601C600 601 557 601 514.2 601C471.3 601 428.7 601 385.8 601C343 601 300 601 257.2 601C214.3 601 171.7 601 128.8 601C86 601 43 601 21.5 601L0 601Z" fill="#c0eab1"></path><path d="M0 514L21.5 514.2C43 514.3 86 514.7 128.8 503.2C171.7 491.7 214.3 468.3 257.2 455C300 441.7 343 438.3 385.8 442.8C428.7 447.3 471.3 459.7 514.2 472.3C557 485 600 498 642.8 499.3C685.7 500.7 728.3 490.3 771.2 476.7C814 463 857 446 878.5 437.5L900 429L900 601L878.5 601C857 601 814 601 771.2 601C728.3 601 685.7 601 642.8 601C600 601 557 601 514.2 601C471.3 601 428.7 601 385.8 601C343 601 300 601 257.2 601C214.3 601 171.7 601 128.8 601C86 601 43 601 21.5 601L0 601Z" fill="#9add85"></path><path d="M0 536L21.5 535.5C43 535 86 534 128.8 524.7C171.7 515.3 214.3 497.7 257.2 494.3C300 491 343 502 385.8 507.8C428.7 513.7 471.3 514.3 514.2 510.5C557 506.7 600 498.3 642.8 503.7C685.7 509 728.3 528 771.2 537.3C814 546.7 857 546.3 878.5 546.2L900 546L900 601L878.5 601C857 601 814 601 771.2 601C728.3 601 685.7 601 642.8 601C600 601 557 601 514.2 601C471.3 601 428.7 601 385.8 601C343 601 300 601 257.2 601C214.3 601 171.7 601 128.8 601C86 601 43 601 21.5 601L0 601Z" fill="#71cf57"></path><path d="M0 523L21.5 522.8C43 522.7 86 522.3 128.8 528.7C171.7 535 214.3 548 257.2 550.3C300 552.7 343 544.3 385.8 547.2C428.7 550 471.3 564 514.2 564.3C557 564.7 600 551.3 642.8 551.3C685.7 551.3 728.3 564.7 771.2 569.7C814 574.7 857 571.3 878.5 569.7L900 568L900 601L878.5 601C857 601 814 601 771.2 601C728.3 601 685.7 601 642.8 601C600 601 557 601 514.2 601C471.3 601 428.7 601 385.8 601C343 601 300 601 257.2 601C214.3 601 171.7 601 128.8 601C86 601 43 601 21.5 601L0 601Z" fill="#3bc11d"></path></svg>