<svg id="visual" viewBox="0 0 900 600" width="900" height="600" xmlns="http://www.w3.org/2000/svg" xmlns:xlink="http://www.w3.org/1999/xlink" version="1.1"><rect x="0" y="0" width="900" height="600" fill="#ffffff"></rect><defs><linearGradient id="grad1_0" x1="33.3%" y1="0%" x2="100%" y2="100%"><stop offset="20%" stop-color="#ffffff" stop-opacity="1"></stop><stop offset="80%" stop-color="#ffffff" stop-opacity="1"></stop></linearGradient></defs><defs><linearGradient id="grad2_0" x1="0%" y1="0%" x2="66.7%" y2="100%"><stop offset="20%" stop-color="#ffffff" stop-opacity="1"></stop><stop offset="80%" stop-color="#ffffff" stop-opacity="1"></stop></linearGradient></defs><g transform="translate(900, 0)"><path d="M0 378.6C-52.5 376.6 -104.9 374.6 -144.9 349.8C-184.8 324.9 -212.2 277.2 -237.6 237.6C-263 198 -286.3 166.4 -309.5 128.2C-332.7 90 -355.6 45 -378.6 0L0 0Z" fill="#50ff50"></path></g><g transform="translate(0, 600)"><path d="M0 -378.6C47 -364.9 93.9 -351.1 137.8 -332.6C181.6 -314 222.3 -290.7 259.5 -259.5C296.7 -228.4 330.5 -189.4 349.8 -144.9C369 -100.3 373.8 -50.2 378.6 0L0 0Z" fill="#50ff50"></path></g></svg>