<svg id="visual" viewBox="0 0 900 600" width="900" height="600" xmlns="http://www.w3.org/2000/svg" xmlns:xlink="http://www.w3.org/1999/xlink" version="1.1"><path d="M619 0L594 50C569 100 519 200 512.5 300C506 400 543 500 561.5 550L580 600L0 600L0 550C0 500 0 400 0 300C0 200 0 100 0 50L0 0Z" fill="#6fff73"></path><path d="M303 0L341 50C379 100 455 200 476.3 300C497.7 400 464.3 500 447.7 550L431 600L0 600L0 550C0 500 0 400 0 300C0 200 0 100 0 50L0 0Z" fill="#50e447"></path><path d="M193 0L202 50C211 100 229 200 237.5 300C246 400 245 500 244.5 550L244 600L0 600L0 550C0 500 0 400 0 300C0 200 0 100 0 50L0 0Z" fill="#2bc900"></path></svg>