<svg id="visual" viewBox="0 0 960 540" width="960" height="540" xmlns="http://www.w3.org/2000/svg" xmlns:xlink="http://www.w3.org/1999/xlink" version="1.1"><path d="M0 387L11.5 388.5C23 390 46 393 68.8 398.3C91.7 403.7 114.3 411.3 137.2 387.2C160 363 183 307 205.8 293.7C228.7 280.3 251.3 309.7 274.2 323.5C297 337.3 320 335.7 342.8 327.5C365.7 319.3 388.3 304.7 411.2 310C434 315.3 457 340.7 480 338.8C503 337 526 308 548.8 285.3C571.7 262.7 594.3 246.3 617.2 252C640 257.7 663 285.3 685.8 299C708.7 312.7 731.3 312.3 754.2 311.5C777 310.7 800 309.3 822.8 312.2C845.7 315 868.3 322 891.2 329.3C914 336.7 937 344.3 948.5 348.2L960 352" fill="none" stroke="#00d219" stroke-width="2" stroke-linecap="round" stroke-linejoin="miter"></path></svg>